<?xml version="1.0" encoding="UTF-8"?>
<!DOCTYPE svg PUBLIC "-//W3C//DTD SVG 1.1//EN" "http://www.w3.org/Graphics/SVG/1.1/DTD/svg11.dtd">
<svg version="1.1" xmlns="http://www.w3.org/2000/svg" xmlns:xlink="http://www.w3.org/1999/xlink" x="0" y="0" width="905.333" height="499.736" viewBox="0, 0, 905.333, 499.736">
  <g id="Layer_1">
    <path d="M102.333,107.513 C98.191,107.513 94.833,104.155 94.833,100.013 C94.833,95.871 98.191,92.513 102.333,92.513 C106.475,92.513 109.833,95.871 109.833,100.013 C109.833,104.155 106.475,107.513 102.333,107.513 z" fill-opacity="0" stroke="#000000" stroke-width="3"/>
    <path d="M102.333,495.236 C98.191,495.236 94.833,491.878 94.833,487.736 C94.833,483.594 98.191,480.236 102.333,480.236 C106.475,480.236 109.833,483.594 109.833,487.736 C109.833,491.878 106.475,495.236 102.333,495.236 z" fill-opacity="0" stroke="#000000" stroke-width="3"/>
    <path d="M807.812,107.513 C803.67,107.513 800.312,104.155 800.312,100.013 C800.312,95.871 803.67,92.513 807.812,92.513 C811.954,92.513 815.312,95.871 815.312,100.013 C815.312,104.155 811.954,107.513 807.812,107.513 z" fill-opacity="0" stroke="#000000" stroke-width="3"/>
    <path d="M807.812,494.84 C803.67,494.84 800.312,491.482 800.312,487.34 C800.312,483.198 803.67,479.84 807.812,479.84 C811.954,479.84 815.312,483.198 815.312,487.34 C815.312,491.482 811.954,494.84 807.812,494.84 z" fill-opacity="0" stroke="#000000" stroke-width="3"/>
    <g>
      <path d="M523.286,288.329 C520.386,288.329 518.036,285.978 518.036,283.079 C518.036,280.179 520.386,277.829 523.286,277.829 C526.185,277.829 528.536,280.179 528.536,283.079 C528.536,285.978 526.185,288.329 523.286,288.329 z" fill="#000000"/>
      <path d="M523.286,288.329 C520.386,288.329 518.036,285.978 518.036,283.079 C518.036,280.179 520.386,277.829 523.286,277.829 C526.185,277.829 528.536,280.179 528.536,283.079 C528.536,285.978 526.185,288.329 523.286,288.329 z" fill-opacity="0" stroke="#000000" stroke-width="3"/>
    </g>
    <g>
      <path d="M523.286,492.986 C520.386,492.986 518.036,490.635 518.036,487.736 C518.036,484.836 520.386,482.486 523.286,482.486 C526.185,482.486 528.536,484.836 528.536,487.736 C528.536,490.635 526.185,492.986 523.286,492.986 z" fill="#000000"/>
      <path d="M523.286,492.986 C520.386,492.986 518.036,490.635 518.036,487.736 C518.036,484.836 520.386,482.486 523.286,482.486 C526.185,482.486 528.536,484.836 528.536,487.736 C528.536,490.635 526.185,492.986 523.286,492.986 z" fill-opacity="0" stroke="#000000" stroke-width="3"/>
    </g>
    <g>
      <path d="M597.498,492.59 C594.599,492.59 592.248,490.239 592.248,487.34 C592.248,484.44 594.599,482.09 597.498,482.09 C600.398,482.09 602.748,484.44 602.748,487.34 C602.748,490.239 600.398,492.59 597.498,492.59 z" fill="#000000"/>
      <path d="M597.498,492.59 C594.599,492.59 592.248,490.239 592.248,487.34 C592.248,484.44 594.599,482.09 597.498,482.09 C600.398,482.09 602.748,484.44 602.748,487.34 C602.748,490.239 600.398,492.59 597.498,492.59 z" fill-opacity="0" stroke="#000000" stroke-width="3"/>
    </g>
    <g>
      <path d="M278.016,105.263 C275.116,105.263 272.766,102.913 272.766,100.013 C272.766,97.114 275.116,94.763 278.016,94.763 C280.915,94.763 283.266,97.114 283.266,100.013 C283.266,102.913 280.915,105.263 278.016,105.263 z" fill="#000000"/>
      <path d="M278.016,105.263 C275.116,105.263 272.766,102.913 272.766,100.013 C272.766,97.114 275.116,94.763 278.016,94.763 C280.915,94.763 283.266,97.114 283.266,100.013 C283.266,102.913 280.915,105.263 278.016,105.263 z" fill-opacity="0" stroke="#000000" stroke-width="3"/>
    </g>
    <g>
      <path d="M595.592,288.329 C592.693,288.329 590.342,285.978 590.342,283.079 C590.342,280.179 592.693,277.829 595.592,277.829 C598.492,277.829 600.842,280.179 600.842,283.079 C600.842,285.978 598.492,288.329 595.592,288.329 z" fill="#000000"/>
      <path d="M595.592,288.329 C592.693,288.329 590.342,285.978 590.342,283.079 C590.342,280.179 592.693,277.829 595.592,277.829 C598.492,277.829 600.842,280.179 600.842,283.079 C600.842,285.978 598.492,288.329 595.592,288.329 z" fill-opacity="0" stroke="#000000" stroke-width="3"/>
    </g>
    <g>
      <path d="M686.285,492.59 C683.386,492.59 681.035,490.239 681.035,487.34 C681.035,484.44 683.386,482.09 686.285,482.09 C689.185,482.09 691.535,484.44 691.535,487.34 C691.535,490.239 689.185,492.59 686.285,492.59 z" fill="#000000"/>
      <path d="M686.285,492.59 C683.386,492.59 681.035,490.239 681.035,487.34 C681.035,484.44 683.386,482.09 686.285,482.09 C689.185,482.09 691.535,484.44 691.535,487.34 C691.535,490.239 689.185,492.59 686.285,492.59 z" fill-opacity="0" stroke="#000000" stroke-width="3"/>
    </g>
    <g>
      <path d="M523.286,105.263 C520.386,105.263 518.036,102.913 518.036,100.013 C518.036,97.114 520.386,94.763 523.286,94.763 C526.185,94.763 528.536,97.114 528.536,100.013 C528.536,102.913 526.185,105.263 523.286,105.263 z" fill="#000000"/>
      <path d="M523.286,105.263 C520.386,105.263 518.036,102.913 518.036,100.013 C518.036,97.114 520.386,94.763 523.286,94.763 C526.185,94.763 528.536,97.114 528.536,100.013 C528.536,102.913 526.185,105.263 523.286,105.263 z" fill-opacity="0" stroke="#000000" stroke-width="3"/>
    </g>
    <text transform="matrix(1, 0, 0, 1, 484.753, 377.092)">
      <tspan x="-18.088" y="8.667" font-family="Avenir-Medium" font-size="31" fill="#656565">R1</tspan>
    </text>
    <text transform="matrix(1, 0, 0, 1, 410.753, 60.146)">
      <tspan x="-26.986" y="8.667" font-family="Avenir-Medium" font-size="31" fill="#656565">TR1</tspan>
    </text>
    <text transform="matrix(1, 0, 0, 1, 731.568, 282.579)">
      <tspan x="-37.618" y="4.5" font-family="Avenir-Medium" font-size="31" fill="#656565">SCR1</tspan>
    </text>
    <text transform="matrix(1, 0, 0, 1, 622.625, 344.173)">
      <tspan x="-19.53" y="8.667" font-family="Avenir-Medium" font-size="31" fill="#656565">C1</tspan>
    </text>
    <text transform="matrix(1, 0, 0, 1, 211.623, 138.135)">
      <tspan x="-33.015" y="8.5" font-family="Avenir-Medium" font-size="31" fill="#656565">Fuse</tspan>
    </text>
    <text transform="matrix(1, 0, 0, 1, 468.695, 227.83)">
      <tspan x="-29.295" y="8.667" font-family="Avenir-Medium" font-size="31" fill="#656565">ZD1</tspan>
    </text>
    <text transform="matrix(0, -1, 1, 0, 47.167, 291.898)">
      <tspan x="-72.679" y="-16.167" font-family="Avenir-Medium" font-size="31" fill="#656565">Smoothed </tspan>
      <tspan x="-62.868" y="25.833" font-family="Avenir-Medium" font-size="31" fill="#656565">DC input</tspan>
    </text>
    <text transform="matrix(0, -1, 1, 0, 862.833, 311.629)">
      <tspan x="-69.502" y="-11.5" font-family="Avenir-Medium" font-size="31" fill="#656565">Protected </tspan>
      <tspan x="-47.383" y="30.5" font-family="Avenir-Medium" font-size="31" fill="#656565">output</tspan>
    </text>
    <g>
      <g>
        <path d="M659.907,199.663 L686.377,244.663 L712.664,199.663 L659.907,199.663" fill="#000000"/>
        <path d="M659.907,199.663 L686.377,244.663 L712.664,199.663 L659.907,199.663" fill-opacity="0" stroke="#000000" stroke-width="1"/>
      </g>
      <path d="M659.907,244.663 L712.664,244.663" fill-opacity="0" stroke="#000000" stroke-width="16"/>
    </g>
    <path d="M523.286,105.263 L523.286,487.736" fill-opacity="0" stroke="#000000" stroke-width="3"/>
    <path d="M597.498,283.079 L597.498,487.736" fill-opacity="0" stroke="#000000" stroke-width="3"/>
    <path d="M371.871,127.103 L371.871,265.932" fill-opacity="0" stroke="#000000" stroke-width="3"/>
    <path d="M278.016,5.5 L278.016,97.388" fill-opacity="0" stroke="#000000" stroke-width="3"/>
    <path d="M678.87,250.663 L646.455,283.079" fill-opacity="0" stroke="#000000" stroke-width="3"/>
    <path d="M646.455,283.079 L523.191,283.079" fill-opacity="0" stroke="#000000" stroke-width="3"/>
    <path d="M800.312,100.013 L406.101,100.013" fill-opacity="0" stroke="#000000" stroke-width="3"/>
    <path d="M686.286,5.5 L278.016,5.5" fill-opacity="0" stroke="#000000" stroke-width="3"/>
    <path d="M337.801,100.013 L234.298,100.013" fill-opacity="0" stroke="#000000" stroke-width="3"/>
    <path d="M189.948,100.013 L109.833,100.013" fill-opacity="0" stroke="#000000" stroke-width="3"/>
    <path d="M800.312,487.736 L109.833,487.736" fill-opacity="0" stroke="#000000" stroke-width="3"/>
    <g>
      <path d="M510.756,342.223 L533.011,342.223 L533.011,412.961 L510.756,412.961 L510.756,342.223 z" fill="#FFFFFF"/>
      <path d="M510.756,342.223 L533.011,342.223 L533.011,412.961 L510.756,412.961 L510.756,342.223 z" fill-opacity="0" stroke="#000000" stroke-width="2"/>
    </g>
    <text transform="matrix(1, 0, 0, 1, 340.524, 309.156)">
      <tspan x="-68.618" y="-14.603" font-family="Avenir-Medium" font-size="31" fill="#656565">Regulator </tspan>
      <tspan x="-49.414" y="27.397" font-family="Avenir-Medium" font-size="31" fill="#656565">control</tspan>
    </text>
    <g>
      <path d="M102.333,473.135 L102.333,128.935" fill-opacity="0" stroke="#A3A3A3" stroke-width="5"/>
      <path d="M102.333,128.935 L107.733,132.535 L102.333,118.135 L96.933,132.535 z" fill="#A3A3A3" fill-opacity="1" stroke="#A3A3A3" stroke-width="5" stroke-opacity="1"/>
    </g>
    <g>
      <path d="M807.812,473.135 L807.812,128.935" fill-opacity="0" stroke="#A3A3A3" stroke-width="5"/>
      <path d="M807.812,128.935 L813.212,132.535 L807.812,118.135 L802.412,132.535 z" fill="#A3A3A3" fill-opacity="1" stroke="#A3A3A3" stroke-width="5" stroke-opacity="1"/>
    </g>
    <g>
      <g>
        <g>
          <path d="M523.365,194.878 L506.151,221.263 L540.421,221.263 L523.365,194.878 z" fill="#000000"/>
          <path d="M523.365,194.878 L506.151,221.263 L540.421,221.263 L523.365,194.878 z" fill-opacity="0" stroke="#000000" stroke-width="3"/>
        </g>
        <path d="M501.978,191.08 L544.594,191.08" fill-opacity="0" stroke="#000000" stroke-width="8"/>
      </g>
      <path d="M540.859,191.08 L544.594,177.46" fill-opacity="0" stroke="#000000" stroke-width="6"/>
      <path d="M501.978,204.701 L505.713,191.08" fill-opacity="0" stroke="#000000" stroke-width="6"/>
    </g>
    <g>
      <path d="M575.691,368.195 L618.307,368.195 L618.307,385.195 L575.691,385.195 L575.691,368.195 z" fill="#FFFFFF"/>
      <path d="M576.191,367.006 L618.807,367.006" fill-opacity="0" stroke="#000000" stroke-width="12"/>
      <path d="M576.191,388.177 L618.807,388.177" fill-opacity="0" stroke="#000000" stroke-width="12"/>
    </g>
    <g>
      <path d="M196.373,106.438 C192.825,106.438 189.948,103.561 189.948,100.013 C189.948,96.465 192.825,93.588 196.373,93.588 C199.921,93.588 202.798,96.465 202.798,100.013 C202.798,103.561 199.921,106.438 196.373,106.438 z" fill-opacity="0" stroke="#000000" stroke-width="2"/>
      <path d="M227.873,106.438 C224.325,106.438 221.448,103.561 221.448,100.013 C221.448,96.465 224.325,93.588 227.873,93.588 C231.421,93.588 234.298,96.465 234.298,100.013 C234.298,103.561 231.421,106.438 227.873,106.438 z" fill-opacity="0" stroke="#000000" stroke-width="2"/>
      <path d="M197.697,93.588 L226.197,106.438" fill-opacity="0" stroke="#000000" stroke-width="2"/>
      <path d="M197.697,106.438 L224.197,94.681" fill-opacity="0" stroke="#000000" stroke-width="2"/>
    </g>
    <g>
      <path d="M415.908,127.016 C415.908,151.337 396.192,171.053 371.871,171.053 C347.55,171.053 327.834,151.337 327.834,127.016 C327.834,102.696 347.55,82.98 371.871,82.98 C396.192,82.98 415.908,102.696 415.908,127.016 z" fill-opacity="0" stroke="#000000" stroke-width="3"/>
      <path d="M340.382,127.103 L340.382,119.054 L403.359,119.054 L403.359,127.103 L340.382,127.103 z" fill-opacity="0" stroke="#000000" stroke-width="3"/>
      <path d="M372.481,127.103 L372.481,171.053" fill-opacity="0" stroke="#000000" stroke-width="2"/>
      <path d="M338.389,101.06 L360.17,119.054" fill-opacity="0" stroke="#000000" stroke-width="2"/>
      <g>
        <path d="M397.003,108.575 L384.319,119.054" fill-opacity="0" stroke="#000000" stroke-width="2"/>
        <path d="M399.296,111.351 L404.405,102.461 L394.711,105.8 z" fill="#000000" fill-opacity="1" stroke="#000000" stroke-width="2" stroke-opacity="1"/>
      </g>
    </g>
    <path d="M680.285,92.095 L691.285,92.095 L691.285,106.931 L680.285,106.931 L680.285,92.095 z" fill="#FFFFFF"/>
    <path d="M686.286,5.5 L686.286,487.736" fill-opacity="0" stroke="#000000" stroke-width="3"/>
  </g>
</svg>
